<svg xmlns="http://www.w3.org/2000/svg" viewBox="0 0 533.5 544.3">
  <path fill="#4285f4" d="M533.5 278.4c0-18.4-1.5-36.1-4.3-53.2H272v100.8h147.3c-6.4 34.9-25.8 64.4-55.1 84.2v69.4h88.8c52.1-48 80.5-118.8 80.5-201.2z"/>
  <path fill="#34a853" d="M272 544.3c74.8 0 137.6-24.8 183.5-67.5l-88.8-69.4c-24.6 16.5-56 26.1-94.7 26.1-72.8 0-134.5-49.2-156.4-115.2H22.7v72.3c45.2 89.5 138.4 153.7 249.3 153.7z"/>
  <path fill="#fbbc04" d="M115.6 318.3c-10.2-30.1-10.2-62.5 0-92.6V153.4H22.7C-12.6 218.4-12.6 302.6 22.7 367.6l92.9-49.3z"/>
  <path fill="#ea4335" d="M272 107.7c40.6 0 77.1 14.1 105.9 41.6l79.4-79.4C409.6 24.3 346.8 0 272 0 161.1 0 67.9 64.2 22.7 153.4l92.9 72.3c21.9-66 83.6-115.2 156.4-115.2z"/>
</svg>
